<svg id="Capa_1" enable-background="new 0 0 512 512" height="512" viewBox="0 0 512 512" width="512" xmlns="http://www.w3.org/2000/svg"><g><g><g><g><path d="m46.185 346.047v148.012l91.905-77.49c9.779 7.056 55.155 36.223 94.797 40.254 49.646 5.049 87.911-4.783 120.151-20.276s69.153-49.448 88.868-90.639z" fill="#c4e5f9"/></g><g><path d="m441.832 345.908c-20.704 32.141-50.871 57.951-77.789 70.887-32.24 15.493-70.505 25.325-120.151 20.276-39.641-4.032-85.018-32.554-94.797-39.61l-82.222 69.326v-120.747l-20.689.007v148.012l91.905-77.49c9.779 7.056 55.155 36.222 94.797 40.254 49.646 5.049 87.911-4.783 120.151-20.276s69.153-49.448 88.868-90.639z" fill="#a4d7f5"/></g><g><path d="m436.902 121.056c-20.913-39.117-51.642-69.856-89.869-89.638v-.419c-54.784-29.135-128.145-29.134-182.928 0v.419c-38.227 19.782-68.956 50.521-89.869 89.638z" fill="#c4e5f9"/></g><g><path d="m114.26 97.802c15.773-29.503 37.133-54.237 63.08-73.102-4.51 1.928-8.935 4.013-13.235 6.3v.419c-38.227 19.781-68.956 50.52-89.869 89.637h362.666c-4.343-8.122-9.115-15.878-14.283-23.255h-308.359z" fill="#a4d7f5"/></g><g><path d="m160.215 78.589-8.82-12.133c5.104-3.71 8.995-6.418 12.615-8.781l8.197 12.562c-3.401 2.221-7.1 4.796-11.992 8.352zm24.217-15.467-6.748-13.396c4.7-2.368 9.507-4.401 14.695-6.216l4.953 14.158c-4.567 1.598-8.787 3.382-12.9 5.454z" fill="#fff"/></g><g><path d="m7.875 120.5h496.25v225h-496.25z" fill="#f8e868"/></g><g><path d="m30.021 321.486v-200.986h-22.146v225h496.25v-24.014z" fill="#dec80e"/></g><g><path d="m413.5 271h15v15h-15z" fill="#fff"/></g><g><path d="m83.5 271h15v15h-15z" fill="#fff"/></g></g></g><g><path d="m184.327 62.991c4.119-2.075 8.345-3.862 12.919-5.462l-4.96-14.179c-5.196 1.818-10.01 3.854-14.717 6.225z"/><path d="m160.074 78.481c4.899-3.561 8.603-6.141 12.009-8.363l-8.209-12.581c-3.625 2.366-7.521 5.078-12.633 8.794z"/><path d="m248.656 450.768-.688 15.006c2.671.122 5.374.184 8.032.184 2.577 0 5.181-.038 7.74-.114l-.443-15.015c-4.824.143-9.754.163-14.641-.061z"/><path d="m512 112.942h-69.475c-18.975-33.291-45.655-61.126-77.435-80.655l-7.865 12.799c27.238 16.738 50.48 40.043 67.828 67.857h-338.166c37.401-59.961 100.972-96.643 169.085-96.643 30.747 0 60.278 7.135 87.773 21.207l6.844-13.372c-29.633-15.167-61.467-22.857-94.617-22.857-39.293 0-77.807 11.21-111.377 32.418-30.795 19.455-56.674 46.772-75.182 79.245h-69.413v53.078h15.022v-38.056h481.956v210.308h-481.956v-157.23h-15.022v172.252h38.375v157.427l99.958-84.283c29.767 20.483 61.978 33.541 93.5 37.86l2.039-14.883c-32.337-4.249-66.7-19.638-96.32-41.984l-84.155 71.97v-126.106h375.423c-31.684 56.436-84.956 90.64-151.158 96.673l1.363 14.96c38.418-3.501 72.814-15.77 102.232-36.464 27.016-19.005 48.729-44.295 64.611-75.17h66.132z"/><path d="m90.776 165.892h15.05v-15.022h-15.05c-20.743 0-37.619 16.876-37.619 37.619 0 10.062 3.922 19.517 11.043 26.625 7.104 7.091 16.538 10.994 26.573 10.994.023 0 15.067-.027 15.067-.027l-.027-14.995h-14.995c-29.968-1.04-30.032-44.029-.042-45.194z"/><path d="m428.771 165.892h22.561v-15.022h-22.561c-20.743 0-37.619 16.876-37.619 37.619 0 10.062 3.922 19.517 11.043 26.625 7.104 7.091 16.597 10.953 26.645 10.953h22.46v-45.004h-29.925v15.022h14.916l.013 14.988-7.491.014c-.015 0-.029 0-.044 0-6.027 0-11.695-2.344-15.962-6.603-4.278-4.269-6.633-9.95-6.633-15.994 0-12.461 10.137-22.598 22.597-22.598z"/><path d="m286.004 151.058h15.022v75.087h-15.022z"/><path d="m361.217 198.517-30.836-47.549h-14.333v75.05h15.022v-46.379l29.997 46.256h15.172v-74.837h-15.022z"/><path d="m150.819 226.08c16.566 0 30.044-13.478 30.044-30.044v-15.122c0-16.566-13.478-30.044-30.044-30.044s-30.044 13.478-30.044 30.044v15.122c0 16.567 13.478 30.044 30.044 30.044zm-15.022-45.166c0-8.283 6.739-15.022 15.022-15.022s15.022 6.739 15.022 15.022v15.122c0 8.283-6.739 15.022-15.022 15.022s-15.022-6.739-15.022-15.022z"/><path d="m233.713 176.313-22.614-25.345h-15.31v75.177h15.022v-52.936l22.92 25.687 22.189-24.947v52.196h15.022v-75.177h-14.684z"/><path d="m150.887 301.118h-30.272v15.022h30.339c29.567-1.061 29.48-44.104-.079-45.041l-7.661-.007c-9.742-.267-9.73-14.526.006-14.779h30.032v-15.023h-30.032c-12.358 0-22.412 10.054-22.412 22.412 0 12.345 10.044 22.399 22.39 22.412l7.662.007c9.755.244 9.768 14.718.027 14.997z"/><path d="m188.267 286.649c0 16.566 13.478 30.044 30.044 30.044s30.044-13.478 30.044-30.044v-15.122c0-16.566-13.478-30.044-30.044-30.044s-30.044 13.478-30.044 30.044zm15.022-15.123c0-8.283 6.739-15.022 15.022-15.022s15.022 6.739 15.022 15.022v15.122c0 8.283-6.739 15.022-15.022 15.022s-15.022-6.739-15.022-15.022z"/><path d="m263.461 271.526v15.122c0 16.566 13.478 30.044 30.044 30.044s30.044-13.478 30.044-30.044v-15.122c0-16.566-13.478-30.044-30.044-30.044s-30.044 13.478-30.044 30.044zm15.022 0c0-8.283 6.739-15.022 15.022-15.022s15.022 6.739 15.022 15.022v15.122c0 8.283-6.739 15.022-15.022 15.022s-15.022-6.739-15.022-15.022z"/><path d="m383.84 288.762-30.836-47.55h-14.333v75.051h15.022v-46.38l29.997 46.256h15.172v-74.836h-15.022z"/><path d="m414.514 20.494h43.724v15.022h-43.724z" transform="matrix(.685 -.729 .729 .685 117.065 326.75)"/><path d="m458.302 73.296h43.724v15.022h-43.724z" transform="matrix(.859 -.511 .511 .859 26.238 256.984)"/><path d="m437.673 45.084h43.724v15.022h-43.724z" transform="matrix(.78 -.626 .626 .78 68.296 299.315)"/><path d="m69.491 6.143h15.022v43.724h-15.022z" transform="matrix(.729 -.685 .685 .729 1.719 60.347)"/><path d="m25.703 58.945h15.022v43.724h-15.022z" transform="matrix(.511 -.859 .859 .511 -53.211 68.012)"/><path d="m46.332 30.733h15.022v43.724h-15.022z" transform="matrix(.626 -.78 .78 .626 -20.879 61.647)"/><path d="m200.501 384.406h43.724v15.023h-43.724z" transform="matrix(.139 -.99 .99 .139 -196.687 557.573)"/><path d="m283.44 371.137h15.022v43.724h-15.022z" transform="matrix(.99 -.139 .139 .99 -51.87 44.324)"/><path d="m248.526 372.716h15.022v43.724h-15.022z"/><path d="m413.731 271.174h15.022v15.022h-15.022z"/><path d="m83.247 271.174h15.022v15.022h-15.022z"/></g></g></svg>